<?xml version="1.0" encoding="iso-8859-1"?>
<!-- Generator: Adobe Illustrator 19.0.0, SVG Export Plug-In . SVG Version: 6.00 Build 0)  -->
<svg version="1.1" id="Capa_1" xmlns="http://www.w3.org/2000/svg" xmlns:xlink="http://www.w3.org/1999/xlink" x="0px" y="0px"
	 viewBox="0 0 128 128" style="enable-background:new 0 0 128 128;" xml:space="preserve">
<path id="Apple-Watch" d="M95,90c0,6.617-5.383,12-12,12H43c-6.617,0-12-5.383-12-12V38c0-6.617,5.383-12,12-12h40
	c6.617,0,12,5.383,12,12V90z M83,112v7.402c0,3.955-1.258,4.315-7.967,5.483c-0.141,0.016-0.321,0.047-0.63,0.1
	C72.934,125.236,68.463,126,63,126c-2.623,0-6.773-0.182-11.648-1.05c-0.138-0.025-0.239-0.043-0.323-0.055
	C44.113,123.54,43,123.047,43,119.402V112c0-2.494-0.216-5.333-1.419-7.717h42.891C83.205,106.766,83,109.682,83,112L83,112z M43,16
	V8.598c0-3.645,1.113-4.138,8.029-5.493c0.084-0.012,0.185-0.03,0.323-0.055C56.227,2.182,60.377,2,63,2
	c5.463,0,9.934,0.764,11.403,1.015c0.309,0.053,0.489,0.084,0.63,0.1C81.736,4.281,83,4.633,83,8.598V16
	c0,2.318,0.205,5.234,1.472,7.717H41.581C42.784,21.333,43,18.494,43,16L43,16z M98.293,54C98.683,54,99,53.683,99,53.293V42.707
	C99,42.317,98.683,42,98.293,42H97v-4c0-5.987-3.816-11.113-9.13-13.104C85.772,23.043,85,20.007,85,16V8.598
	c0-5.794-3.207-6.337-9.707-7.468C75.011,1.13,69.783,0,63,0S50.848,1.13,50.707,1.13C44.207,2.402,41,3.087,41,8.598V16
	c0,3.991-0.665,7.016-2.802,8.871C32.849,26.844,29,31.987,29,38v52c0,6.013,3.849,11.156,9.198,13.129
	C40.335,104.984,41,108.009,41,112v7.402c0,5.511,3.207,6.196,9.707,7.468c0.141,0,5.51,1.13,12.293,1.13s12.011-1.13,12.293-1.13
	c6.5-1.131,9.707-1.674,9.707-7.468V112c0-4.007,0.772-7.043,2.87-8.896C93.184,101.113,97,95.987,97,90v-8h1c0.552,0,1-0.448,1-1
	V67c0-0.552-0.448-1-1-1h-1V54H98.293z M92,90c0,4.963-4.037,9-9,9H43c-4.963,0-9-4.037-9-9V38c0-4.963,4.037-9,9-9h40
	c4.963,0,9,4.037,9,9V90z M83,28H43c-5.523,0-10,4.477-10,10v52c0,5.523,4.477,10,10,10h40c5.523,0,10-4.477,10-10V38
	C93,32.477,88.523,28,83,28L83,28z"/>
<g>
</g>
<g>
</g>
<g>
</g>
<g>
</g>
<g>
</g>
<g>
</g>
<g>
</g>
<g>
</g>
<g>
</g>
<g>
</g>
<g>
</g>
<g>
</g>
<g>
</g>
<g>
</g>
<g>
</g>
</svg>
