<?xml version="1.0" encoding="iso-8859-1"?>
<!-- Generator: Adobe Illustrator 19.0.0, SVG Export Plug-In . SVG Version: 6.00 Build 0)  -->
<svg version="1.1" id="Capa_1" xmlns="http://www.w3.org/2000/svg" xmlns:xlink="http://www.w3.org/1999/xlink" x="0px" y="0px"
	 viewBox="0 0 128 128" style="enable-background:new 0 0 128 128;" xml:space="preserve">
<path d="M83.239,88.382l-5.077-10.789C76.842,74.789,74.022,73,70.923,73H13.077c-3.099,0-5.919,1.789-7.239,4.593L0.761,88.382
	C0.26,89.447,0,90.61,0,91.788v18.43C0,113.411,2.589,116,5.782,116h72.436c3.193,0,5.782-2.589,5.782-5.782v-18.43
	C84,90.61,83.74,89.447,83.239,88.382z M2.571,89.233l5.077-10.788C8.633,76.352,10.764,75,13.077,75h57.846
	c2.313,0,4.444,1.352,5.429,3.445l5.077,10.788c0.311,0.661,0.492,1.385,0.546,2.115c-0.055,0.489-0.225,0.964-0.511,1.382
	C80.913,93.537,80.048,94,79.091,94H4.909c-0.957,0-1.822-0.463-2.373-1.27c-0.286-0.418-0.456-0.893-0.511-1.382
	C2.079,90.618,2.26,89.894,2.571,89.233z M82,110.218c0,2.085-1.696,3.782-3.782,3.782H5.782C3.696,114,2,112.303,2,110.218V93.664
	C3,94.472,3.724,95,4.909,95h74.182C80.276,95,81,94.472,82,93.664V110.218z"/>
<g>
	<path d="M128,18c0-3.314-2.686-6-6-6h-20c-3.314,0-6,2.686-6,6v92c0,3.314,2.686,6,6,6h20c3.314,0,6-2.686,6-6V18z M126,110
		c0,2.205-1.794,4-4,4h-20c-2.206,0-4-1.795-4-4V57h28V110z M126,56H98V18c0-2.206,1.794-4,4-4h20c2.206,0,4,1.794,4,4V56z"/>
	<path d="M119,44c-2.761,0-5,2.238-5,5c0,2.761,2.239,5,5,5s5-2.239,5-5C124,46.238,121.761,44,119,44z M119,53
		c-2.206,0-4-1.795-4-4c0-2.206,1.794-4,4-4s4,1.794,4,4C123,51.205,121.206,53,119,53z"/>
	<path d="M105,44c-2.761,0-5,2.238-5,5c0,2.761,2.239,5,5,5s5-2.239,5-5C110,46.238,107.761,44,105,44z M105,53
		c-2.206,0-4-1.795-4-4c0-2.206,1.794-4,4-4s4,1.794,4,4C109,51.205,107.206,53,105,53z"/>
	<path d="M108.5,17h7c0.275,0,0.5-0.225,0.5-0.5c0-0.275-0.225-0.5-0.5-0.5h-7c-0.275,0-0.5,0.225-0.5,0.5
		C108,16.775,108.225,17,108.5,17z"/>
	<path d="M118,81c2.75,0,5-2.25,5-5V64c0-2.75-2.25-5-5-5s-5,2.25-5,5v12C113,78.75,115.25,81,118,81z M114,64c0-2.206,1.794-4,4-4
		s4,1.794,4,4v12c0,2.205-1.794,4-4,4s-4-1.795-4-4V64z"/>
	<path d="M105,81c2.761,0,5-2.239,5-5c0-2.762-2.239-5-5-5s-5,2.238-5,5C100,78.761,102.239,81,105,81z M105,72c2.206,0,4,1.794,4,4
		c0,2.205-1.794,4-4,4s-4-1.795-4-4C101,73.794,102.794,72,105,72z"/>
	<path d="M105,69c2.761,0,5-2.239,5-5c0-2.762-2.239-5-5-5s-5,2.238-5,5C100,66.761,102.239,69,105,69z M105,60c2.206,0,4,1.794,4,4
		c0,2.205-1.794,4-4,4s-4-1.795-4-4C101,61.794,102.794,60,105,60z"/>
</g>
<g>
</g>
<g>
</g>
<g>
</g>
<g>
</g>
<g>
</g>
<g>
</g>
<g>
</g>
<g>
</g>
<g>
</g>
<g>
</g>
<g>
</g>
<g>
</g>
<g>
</g>
<g>
</g>
<g>
</g>
</svg>
