<?xml version="1.0" encoding="iso-8859-1"?>
<!-- Generator: Adobe Illustrator 19.0.0, SVG Export Plug-In . SVG Version: 6.00 Build 0)  -->
<svg version="1.1" id="Capa_1" xmlns="http://www.w3.org/2000/svg" xmlns:xlink="http://www.w3.org/1999/xlink" x="0px" y="0px"
	 viewBox="0 0 128 128" style="enable-background:new 0 0 128 128;" xml:space="preserve">
<g>
	<path d="M122,8H6c-3.3,0-6,2.7-6,6v80c0,3.3,2.7,6,6,6h46c0,1.719-0.89,9.083-4.469,16H42v1.55c0,1.348,1.102,2.45,2.449,2.45
		h39.102c1.347,0,2.449-1.102,2.449-2.45V116h-5.531C76.89,109.083,76,101.719,76,100h46c3.3,0,6-2.7,6-6V14C128,10.7,125.3,8,122,8
		z M85,117v0.55c0,0.8-0.65,1.45-1.449,1.45H44.449C43.65,119,43,118.35,43,117.55V117H85z M79.343,116H48.656
		C52.123,109.112,53,101.744,53,100h22C75,101.744,75.877,109.114,79.343,116z M126,94c0,2.206-1.794,4-4,4H6c-2.206,0-4-1.794-4-4
		V83h124V94z M126,82H2V14c0-2.206,1.794-4,4-4h116c2.206,0,4,1.794,4,4V82z"/>
	<path d="M118,14H10c-2.209,0-4,1.791-4,4v56c0,2.209,1.791,4,4,4h108c2.209,0,4-1.791,4-4V18C122,15.791,120.209,14,118,14z
		 M121,74c0,1.654-1.346,3-3,3H10c-1.654,0-3-1.346-3-3V18c0-1.654,1.346-3,3-3h108c1.654,0,3,1.346,3,3V74z"/>
</g>
<g>
</g>
<g>
</g>
<g>
</g>
<g>
</g>
<g>
</g>
<g>
</g>
<g>
</g>
<g>
</g>
<g>
</g>
<g>
</g>
<g>
</g>
<g>
</g>
<g>
</g>
<g>
</g>
<g>
</g>
</svg>
