<?xml version="1.0" encoding="iso-8859-1"?>
<!-- Generator: Adobe Illustrator 19.0.0, SVG Export Plug-In . SVG Version: 6.00 Build 0)  -->
<svg version="1.1" id="Capa_1" xmlns="http://www.w3.org/2000/svg" xmlns:xlink="http://www.w3.org/1999/xlink" x="0px" y="0px"
	 viewBox="0 0 128 128" style="enable-background:new 0 0 128 128;" xml:space="preserve">
<g>
	<path d="M106.5,19v-2c0-0.55-0.45-1-1-1V8c0-4.4-3.6-8-8-8h-68c-4.4,0-8,3.6-8,8v112c0,4.4,3.6,8,8,8h68c4.4,0,8-3.6,8-8V36
		c0.55,0,1-0.45,1-1V25c0-0.55-0.45-1-1-1v-4C106.05,20,106.5,19.55,106.5,19z M103.5,120c0,3.308-2.692,6-6,6h-68
		c-3.308,0-6-2.692-6-6V8c0-3.308,2.692-6,6-6h68c3.308,0,6,2.692,6,6V120z"/>
	<circle cx="63.5" cy="7" r="1"/>
	<path d="M63.5,116c-2.209,0-4,1.791-4,4s1.791,4,4,4s4-1.791,4-4S65.709,116,63.5,116z M63.5,123c-1.654,0-3-1.346-3-3s1.346-3,3-3
		s3,1.346,3,3S65.154,123,63.5,123z"/>
	<path d="M97.5,12h-68c-2.209,0-4,1.791-4,4v94c0,2.209,1.791,4,4,4h68c2.209,0,4-1.791,4-4V16C101.5,13.791,99.709,12,97.5,12z
		 M100.5,110c0,1.654-1.346,3-3,3h-68c-1.654,0-3-1.346-3-3V16c0-1.654,1.346-3,3-3h68c1.654,0,3,1.346,3,3V110z"/>
</g>
<g>
</g>
<g>
</g>
<g>
</g>
<g>
</g>
<g>
</g>
<g>
</g>
<g>
</g>
<g>
</g>
<g>
</g>
<g>
</g>
<g>
</g>
<g>
</g>
<g>
</g>
<g>
</g>
<g>
</g>
</svg>
