<?xml version="1.0" encoding="iso-8859-1"?>
<!-- Generator: Adobe Illustrator 19.0.0, SVG Export Plug-In . SVG Version: 6.00 Build 0)  -->
<svg version="1.1" id="Capa_1" xmlns="http://www.w3.org/2000/svg" xmlns:xlink="http://www.w3.org/1999/xlink" x="0px" y="0px"
	 viewBox="0 0 128 128" style="enable-background:new 0 0 128 128;" xml:space="preserve">
<g>
	<path d="M83,116c0,1.1,0.9,2,2,2c1.1,0,2-0.9,2-2v-8h-4V116z"/>
	<path d="M119.628,10H8.372C3.768,10,0,13.768,0,18.372v75.256C0,98.232,3.768,102,8.372,102H83v4h4v-4h5c0,0.55,0.45,1,1,1h10
		c0.55,0,1-0.45,1-1h4c0,0.55,0.45,1,1,1h2c0.55,0,1-0.45,1-1h7.628c4.604,0,8.372-3.768,8.372-8.372V18.372
		C128,13.768,124.232,10,119.628,10z M86.767,57.195l-1.375-6.873c-0.086-0.429-0.698-0.429-0.784,0l-1.375,6.873
		C83.078,57.97,83,58.758,83,59.549V97H18.205C16.438,97,15,95.562,15,93.795v-75.59C15,16.438,16.438,15,18.205,15h93.59
		c1.767,0,3.205,1.438,3.205,3.205v75.59c0,1.767-1.438,3.205-3.205,3.205H87V59.549C87,58.758,86.922,57.97,86.767,57.195z
		 M126,93.628c0,3.513-2.859,6.372-6.372,6.372H87v-2h24.795c2.322,0,4.205-1.883,4.205-4.205v-75.59
		c0-2.322-1.883-4.205-4.205-4.205h-93.59C15.883,14,14,15.883,14,18.205v75.59C14,96.117,15.883,98,18.205,98H83v2H8.372
		C4.859,100,2,97.141,2,93.628V18.372C2,14.859,4.859,12,8.372,12h111.256c3.513,0,6.372,2.859,6.372,6.372V93.628z"/>
	<circle cx="121" cy="56" r="1"/>
	<path d="M8,52c-2.209,0-4,1.791-4,4c0,2.209,1.791,4,4,4c2.209,0,4-1.791,4-4C12,53.791,10.209,52,8,52z M8,59
		c-1.654,0-3-1.346-3-3s1.346-3,3-3s3,1.346,3,3S9.654,59,8,59z"/>
</g>
<g>
</g>
<g>
</g>
<g>
</g>
<g>
</g>
<g>
</g>
<g>
</g>
<g>
</g>
<g>
</g>
<g>
</g>
<g>
</g>
<g>
</g>
<g>
</g>
<g>
</g>
<g>
</g>
<g>
</g>
</svg>
