<?xml version="1.0" encoding="iso-8859-1"?>
<!-- Generator: Adobe Illustrator 19.0.0, SVG Export Plug-In . SVG Version: 6.00 Build 0)  -->
<svg version="1.1" id="Capa_1" xmlns="http://www.w3.org/2000/svg" xmlns:xlink="http://www.w3.org/1999/xlink" x="0px" y="0px"
	 viewBox="0 0 128 128" style="enable-background:new 0 0 128 128;" xml:space="preserve">
<g>
	<path d="M96,0H32c-3.3,0-6,2.7-6,6v116c0,3.3,2.7,6,6,6h64c3.3,0,6-2.7,6-6V6C102,2.7,99.3,0,96,0z M100,122c0,2.206-1.794,4-4,4
		H32c-2.206,0-4-1.794-4-4V6c0-2.206,1.794-4,4-4h64c2.206,0,4,1.794,4,4V122z"/>
	<path d="M64,66c-13.255,0-24,10.745-24,24s10.745,24,24,24s24-10.745,24-24S77.255,66,64,66z M64,112c-12.131,0-22-9.869-22-22
		c0-12.131,9.869-22,22-22s22,9.869,22,22C86,102.131,76.131,112,64,112z"/>
	<path d="M64,82c-4.418,0-8,3.582-8,8c0,4.418,3.582,8,8,8s8-3.582,8-8C72,85.582,68.418,82,64,82z M64,97c-3.86,0-7-3.14-7-7
		s3.14-7,7-7s7,3.14,7,7S67.86,97,64,97z"/>
	<path d="M92,6H36c-2.2,0-4,1.8-4,4v40c0,2.2,1.8,4,4,4h56c2.2,0,4-1.8,4-4V10C96,7.8,94.2,6,92,6z M95,50c0,1.654-1.346,3-3,3H36
		c-1.654,0-3-1.346-3-3V10c0-1.654,1.346-3,3-3h56c1.654,0,3,1.346,3,3V50z"/>
</g>
<g>
</g>
<g>
</g>
<g>
</g>
<g>
</g>
<g>
</g>
<g>
</g>
<g>
</g>
<g>
</g>
<g>
</g>
<g>
</g>
<g>
</g>
<g>
</g>
<g>
</g>
<g>
</g>
<g>
</g>
</svg>
