<?xml version="1.0" encoding="iso-8859-1"?>
<!-- Generator: Adobe Illustrator 19.0.0, SVG Export Plug-In . SVG Version: 6.00 Build 0)  -->
<svg version="1.1" id="Capa_1" xmlns="http://www.w3.org/2000/svg" xmlns:xlink="http://www.w3.org/1999/xlink" x="0px" y="0px"
	 viewBox="0 0 128 128" style="enable-background:new 0 0 128 128;" xml:space="preserve">
<g>
	<path d="M88,0H40c-8.8,0-16,7.2-16,16v96c0,8.8,7.2,16,16,16h48c8.8,0,16-7.2,16-16V16C104,7.2,96.8,0,88,0z M102,112
		c0,5.168-2.823,9.68-7,12.106V121c0-0.55-0.45-1-1-1s-1,0.45-1,1v4c0,0.02,0.01,0.037,0.012,0.057
		c-1.261,0.485-2.607,0.792-4.012,0.892V123c0-0.55-0.45-1-1-1s-1,0.45-1,1v3h-4v-3c0-0.55-0.45-1-1-1s-1,0.45-1,1v3h-4v-3
		c0-0.55-0.45-1-1-1s-1,0.45-1,1v3h-4v-3c0-0.55-0.45-1-1-1s-1,0.45-1,1v3h-4v-3c0-0.55-0.45-1-1-1s-1,0.45-1,1v3h-4v-3
		c0-0.55-0.45-1-1-1s-1,0.45-1,1v3h-4v-3c0-0.55-0.45-1-1-1s-1,0.45-1,1v3h-4v-3c0-0.55-0.45-1-1-1s-1,0.45-1,1v3h-4v-3
		c0-0.55-0.45-1-1-1s-1,0.45-1,1v2.949c-1.405-0.1-2.751-0.407-4.012-0.892C34.99,125.037,35,125.02,35,125v-4c0-0.55-0.45-1-1-1
		s-1,0.45-1,1v3.106c-4.177-2.426-7-6.938-7-12.106V16c0-7.72,6.28-14,14-14h48c7.72,0,14,6.28,14,14V112z"/>
	<path d="M72,32H56c-3.3,0-6,2.7-6,6v64c0,3.3,2.7,6,6,6h16c3.3,0,6-2.7,6-6V38C78,34.7,75.3,32,72,32z M77,102c0,2.757-2.243,5-5,5
		H56c-2.757,0-5-2.243-5-5V38c0-2.757,2.243-5,5-5h16c2.757,0,5,2.243,5,5V102z"/>
	<circle cx="69" cy="43" r="1"/>
	<circle cx="59" cy="43" r="1"/>
	<path d="M72,78H56c-1.1,0-2,0.9-2,2v4c0,1.1,0.9,2,2,2h16c1.1,0,2-0.9,2-2v-4C74,78.9,73.1,78,72,78z M73,83.5
		c0,0.825-0.506,1.5-1.125,1.5h-15.75C55.506,85,55,84.325,55,83.5v-3c0-0.825,0.506-1.5,1.125-1.5h15.75
		C72.494,79,73,79.675,73,80.5V83.5z"/>
	<path d="M72,60H56c-1.1,0-2,0.9-2,2v12c0,1.1,0.9,2,2,2h16c1.1,0,2-0.9,2-2V62C74,60.9,73.1,60,72,60z M73,73.833
		C73,74.475,72.494,75,71.875,75h-15.75C55.506,75,55,74.475,55,73.833V62.167C55,61.525,55.506,61,56.125,61h15.75
		C72.494,61,73,61.525,73,62.167V73.833z"/>
	<path d="M72,92H56c-1.1,0-2,0.9-2,2v8c0,1.1,0.9,2,2,2h16c1.1,0,2-0.9,2-2v-8C74,92.9,73.1,92,72,92z M73,101.75
		c0,0.688-0.506,1.25-1.125,1.25h-15.75c-0.619,0-1.125-0.562-1.125-1.25v-7.5c0-0.688,0.506-1.25,1.125-1.25h15.75
		C72.494,93,73,93.562,73,94.25V101.75z"/>
	<path d="M67.5,96c-0.275,0-0.5,0.225-0.5,0.5v3c0,0.275,0.225,0.5,0.5,0.5s0.5-0.225,0.5-0.5v-3C68,96.225,67.775,96,67.5,96z"/>
	<path d="M60.5,96c-0.275,0-0.5,0.225-0.5,0.5v3c0,0.275,0.225,0.5,0.5,0.5s0.5-0.225,0.5-0.5v-3C61,96.225,60.775,96,60.5,96z"/>
	<path d="M72,46H56c-1.1,0-2,0.9-2,2v8c0,1.1,0.9,2,2,2h16c1.1,0,2-0.9,2-2v-8C74,46.9,73.1,46,72,46z M73,55.75
		c0,0.688-0.506,1.25-1.125,1.25h-15.75C55.506,57,55,56.438,55,55.75v-7.5c0-0.688,0.506-1.25,1.125-1.25h15.75
		C72.494,47,73,47.562,73,48.25V55.75z"/>
</g>
<g>
</g>
<g>
</g>
<g>
</g>
<g>
</g>
<g>
</g>
<g>
</g>
<g>
</g>
<g>
</g>
<g>
</g>
<g>
</g>
<g>
</g>
<g>
</g>
<g>
</g>
<g>
</g>
<g>
</g>
</svg>
