<?xml version="1.0" encoding="iso-8859-1"?>
<!-- Generator: Adobe Illustrator 19.0.0, SVG Export Plug-In . SVG Version: 6.00 Build 0)  -->
<svg version="1.1" id="Capa_1" xmlns="http://www.w3.org/2000/svg" xmlns:xlink="http://www.w3.org/1999/xlink" x="0px" y="0px"
	 viewBox="0 0 128 128" style="enable-background:new 0 0 128 128;" xml:space="preserve">
<g>
	<path d="M121.844,14H6.156C2.77,14,0,16.77,0,20.156v67.688C0,91.23,2.77,94,6.156,94H52c0,1.719-0.89,9.083-4.469,16H42v1.55
		c0,1.348,1.102,2.45,2.45,2.45h39.101c1.347,0,2.449-1.102,2.449-2.45V110h-5.531C76.89,103.083,76,95.719,76,94h45.844
		c3.386,0,6.156-2.77,6.156-6.156V20.156C128,16.77,125.23,14,121.844,14z M85,111v0.55c0,0.8-0.65,1.45-1.449,1.45H44.45
		c-0.8,0-1.45-0.65-1.45-1.45V111H85z M79.343,110H48.656C52.123,103.112,53,95.744,53,94h22C75,95.744,75.877,103.114,79.343,110z
		 M126,87.844c0,2.292-1.864,4.156-4.156,4.156H6.156C3.864,92,2,90.136,2,87.844V20.156C2,17.864,3.864,16,6.156,16h115.688
		c2.292,0,4.156,1.864,4.156,4.156V87.844z"/>
	<circle cx="64" cy="90" r="1"/>
	<path d="M117.877,20H10.123C7.846,20,6,21.846,6,24.123v59.754C6,86.154,7.846,88,10.123,88h107.754
		c2.277,0,4.123-1.846,4.123-4.123V24.123C122,21.846,120.154,20,117.877,20z M121,83.877c0,1.722-1.401,3.123-3.123,3.123H10.123
		C8.401,87,7,85.599,7,83.877V24.123C7,22.401,8.401,21,10.123,21h107.754c1.722,0,3.123,1.401,3.123,3.123V83.877z"/>
</g>
<g>
</g>
<g>
</g>
<g>
</g>
<g>
</g>
<g>
</g>
<g>
</g>
<g>
</g>
<g>
</g>
<g>
</g>
<g>
</g>
<g>
</g>
<g>
</g>
<g>
</g>
<g>
</g>
<g>
</g>
</svg>
