<?xml version="1.0" encoding="utf-8"?>
<!-- Svg Vector Icons : http://www.onlinewebfonts.com/icon -->
<!DOCTYPE svg PUBLIC "-//W3C//DTD SVG 1.1//EN" "http://www.w3.org/Graphics/SVG/1.1/DTD/svg11.dtd">
<svg version="1.1" xmlns="http://www.w3.org/2000/svg" xmlns:xlink="http://www.w3.org/1999/xlink" x="0px" y="0px" viewBox="0 0 1000 1000" enable-background="new 0 0 1000 1000" xml:space="preserve">
<metadata> Svg Vector Icons : http://www.onlinewebfonts.com/icon </metadata>
<g><g><g><path d="M582.1,990c52.9,0,95.8-43,95.8-95.9V105.9c0-52.9-43-95.9-95.8-95.9H291.7c-52.9,0-95.9,43-95.9,95.9v788.2c0,52.9,43,95.9,95.9,95.9L582.1,990L582.1,990z M221.6,894.1V105.9c0-38.6,31.4-70,70-70h290.4c38.6,0,70,31.4,70,70v788.2c0,38.6-31.4,70-70,70H291.7C253.1,964.2,221.6,932.7,221.6,894.1z"/><path d="M637.1,850.9v-707c0-3.7-3-6.6-6.6-6.6H238.1c-3.7,0-6.6,3-6.6,6.6v707c0,3.7,3,6.6,6.6,6.6h392.3C634.1,857.5,637.1,854.6,637.1,850.9z M623.8,844.2h-379V150.6h379V844.2z"/><path d="M398.8,102.6h70c3.7,0,6.6-3,6.6-6.6c0-3.7-3-6.6-6.6-6.6h-70c-3.7,0-6.6,3-6.6,6.6C392.2,99.6,395.2,102.6,398.8,102.6z"/><circle cx="436.9" cy="60.3" r="7.1"/><circle cx="373.6" cy="95.9" r="7.1"/><path d="M436.9,866.4c-24.1,0-43.7,19.6-43.7,43.7c0,24.1,19.6,43.7,43.7,43.7c24.1,0,43.7-19.6,43.7-43.7C480.6,886,461,866.4,436.9,866.4z M436.9,941.2c-17.2,0-31.1-14-31.1-31.2c0-17.2,14-31.2,31.1-31.2c17.2,0,31.2,14,31.2,31.2C468.1,927.2,454.1,941.2,436.9,941.2z"/><path d="M748,990h32.8c12.9,0,23.3-10.5,23.3-23.3V33.3c0-12.8-10.5-23.3-23.3-23.3H748c-12.9,0-23.3,10.4-23.3,23.3v933.4C724.7,979.5,735.2,990,748,990z M750.5,35.9h27.8v60.6h-27.8V35.9z M750.5,109.7h27.8v784.7h-27.8V109.7z M750.5,907.7h27.8v56.5h-27.8V907.7z"/><path d="M764.5,194.6c3.7,0,6.6-3,6.6-6.6v-44.1c0-3.7-3-6.6-6.6-6.6c-3.7,0-6.6,3-6.6,6.6V188C757.8,191.7,760.8,194.6,764.5,194.6z"/><path d="M764.5,241.3c-5.1,0-9.2,4.1-9.2,9.2c0,5.1,4.1,9.2,9.2,9.2c5.1,0,9.2-4.1,9.2-9.2C773.6,245.5,769.5,241.3,764.5,241.3z"/><path d="M764.5,315.1c-5.1,0-9.2,4.1-9.2,9.2c0,5.1,4.1,9.2,9.2,9.2c5.1,0,9.2-4.1,9.2-9.2C773.7,319.2,769.5,315.1,764.5,315.1z"/></g></g><g></g><g></g><g></g><g></g><g></g><g></g><g></g><g></g><g></g><g></g><g></g><g></g><g></g><g></g><g></g></g>
</svg>