<?xml version="1.0" encoding="iso-8859-1"?>
<!-- Generator: Adobe Illustrator 19.0.0, SVG Export Plug-In . SVG Version: 6.00 Build 0)  -->
<svg version="1.1" id="Capa_1" xmlns="http://www.w3.org/2000/svg" xmlns:xlink="http://www.w3.org/1999/xlink" x="0px" y="0px"
	 viewBox="0 0 60 60" style="enable-background:new 0 0 60 60;" xml:space="preserve">
<g>
	<g>
		<path d="M54,35v-5h1v-2.614c0-5.639-2.104-11.077-5.905-15.407c0.066-0.247,0.112-0.5,0.111-0.76
			c-0.003-0.807-0.345-1.577-0.938-2.115C43.845,5.097,35.73,3,30,3S16.155,5.097,11.732,9.103
			c-0.593,0.538-0.935,1.309-0.938,2.115c0,0.104,0.021,0.205,0.031,0.308C7.075,15.865,5,21.469,5,27.386V30h1v5
			c-3.309,0-6,2.691-6,6v10c0,3.309,2.691,6,6,6h0.29H7h4.514C13.987,57,16,54.987,16,52.514V39.787c0-2.37-1.736-4.329-4-4.708V30
			h1v-2.614c0-3.804,1.36-7.558,3.727-10.4c0.706,0.015,1.42-0.222,1.994-0.719C20.977,14.313,26.374,13,30,13
			s9.023,1.313,11.279,3.267c0.435,0.376,0.95,0.601,1.48,0.683C45.452,19.854,47,23.633,47,27.386V30h1v5.08
			c-2.264,0.378-4,2.337-4,4.708v12.727C44,54.987,46.013,57,48.486,57H53h0.71H54c3.309,0,6-2.691,6-6V41
			C60,37.691,57.309,35,54,35z M5,54.873C3.277,54.429,2,52.86,2,51V41c0-1.86,1.277-3.429,3-3.873V54.873z M13.873,39H12
			c-0.552,0-1,0.447-1,1s0.448,1,1,1h2v2h-2c-0.552,0-1,0.447-1,1s0.448,1,1,1h2v2h-2c-0.552,0-1,0.447-1,1s0.448,1,1,1h2v2h-2
			c-0.552,0-1,0.447-1,1s0.448,1,1,1h1.951c-0.227,1.139-1.233,2-2.437,2H7V37h4.213C12.475,37,13.531,37.848,13.873,39z M8,35v-5h2
			v5H8z M11,27.386V28H7v-0.614c0-5.156,1.699-10.058,4.807-13.941l2.978,2.737C12.336,19.335,11,23.269,11,27.386z M43.806,14.759
			c-0.003,0.003-0.007,0.003-0.01,0.006c-0.096,0.085-0.197,0.141-0.293,0.174c-0.063,0.022-0.13,0.028-0.196,0.036
			c-0.026,0.002-0.059,0.013-0.082,0.014l-0.039,0.001c-0.21-0.006-0.421-0.082-0.598-0.234C39.599,12.165,33.427,11,30,11
			s-9.599,1.165-12.589,3.755c-0.252,0.217-0.572,0.275-0.859,0.194c-0.143-0.04-0.262-0.101-0.359-0.19l-3.102-2.851
			c0,0,0-0.001-0.001-0.001c-0.106-0.097-0.183-0.23-0.236-0.387c-0.032-0.095-0.061-0.192-0.061-0.294
			c0.001-0.25,0.101-0.478,0.281-0.641C17.079,6.957,24.784,5,30,5s12.921,1.957,16.925,5.585c0.18,0.163,0.28,0.391,0.281,0.641
			c0,0.124-0.027,0.245-0.074,0.357L47.1,11.639c-0.045,0.09-0.102,0.174-0.175,0.245c-0.006,0.006-0.012,0.019-0.018,0.024
			L43.806,14.759L43.806,14.759z M53,55h-4.514c-1.205,0-2.21-0.861-2.437-2H48c0.552,0,1-0.447,1-1s-0.448-1-1-1h-2v-2h2
			c0.552,0,1-0.447,1-1s-0.448-1-1-1h-2v-2h2c0.552,0,1-0.447,1-1s-0.448-1-1-1h-2v-2h2c0.552,0,1-0.447,1-1s-0.448-1-1-1h-1.873
			c0.342-1.152,1.398-2,2.66-2H53V55z M50,35v-5h2v5H50z M53,28h-4v-0.614c0-3.905-1.46-7.833-4.047-10.981
			c0.072-0.055,0.141-0.112,0.207-0.173l2.783-2.557C51.212,17.574,53,22.402,53,27.386V28z M58,51c0,1.86-1.277,3.429-3,3.873
			V37.127c1.723,0.444,3,2.013,3,3.873V51z"/>
	</g>
</g>
<g>
</g>
<g>
</g>
<g>
</g>
<g>
</g>
<g>
</g>
<g>
</g>
<g>
</g>
<g>
</g>
<g>
</g>
<g>
</g>
<g>
</g>
<g>
</g>
<g>
</g>
<g>
</g>
<g>
</g>
</svg>
